<?xml version="1.0" standalone="no"?>
<!DOCTYPE svg PUBLIC "-//W3C//DTD SVG 1.1//EN" "http://www.w3.org/Graphics/SVG/1.1/DTD/svg11.dtd" >
<svg xmlns="http://www.w3.org/2000/svg">
<metadata>Generated by IcoMoon</metadata>
<defs>
<font id="icomoon" horiz-adv-x="1024">
<font-face units-per-em="1024" ascent="960" descent="-64" />
<missing-glyph horiz-adv-x="1024" />
<glyph unicode="&#x20;" horiz-adv-x="512" d="" />
<glyph unicode="&#xe600;" glyph-name="googleplus" d="M559.066 896c0 0-200.956 0-267.94 0-120.12 0-233.17-91.006-233.17-196.422 0-107.726 81.882-194.666 204.088-194.666 8.498 0 16.756 0.17 24.842 0.752-7.93-15.186-13.602-32.288-13.602-50.042 0-29.938 16.104-54.21 36.468-74.024-15.386 0-30.242-0.448-46.452-0.448-148.782 0.002-263.3-94.758-263.3-193.020 0-96.778 125.542-157.314 274.334-157.314 169.624 0 263.306 96.244 263.306 193.028 0 77.6-22.896 124.072-93.686 174.134-24.216 17.144-70.53 58.836-70.53 83.344 0 28.72 8.196 42.868 51.428 76.646 44.312 34.624 75.672 83.302 75.672 139.916 0 67.406-30.020 133.098-86.372 154.772h84.954l59.96 43.344zM465.48 240.542c2.126-8.972 3.284-18.206 3.284-27.628 0-78.2-50.392-139.31-194.974-139.31-102.842 0-177.116 65.104-177.116 143.3 0 76.642 92.126 140.444 194.964 139.332 24-0.254 46.368-4.116 66.67-10.69 55.826-38.826 95.876-60.762 107.172-105.004zM300.818 532.224c-69.038 2.064-134.636 77.226-146.552 167.86-11.916 90.666 34.37 160.042 103.388 157.99 69.010-2.074 134.638-74.814 146.558-165.458 11.906-90.66-34.39-162.458-103.394-160.392zM832 704v192h-64v-192h-192v-64h192v-192h64v192h192v64z" />
<glyph unicode="&#xe601;" glyph-name="facebook" d="M575.87-64h-191.87v512h-128v176.45l128 0.058-0.208 103.952c0 143.952 39.034 231.54 208.598 231.54h141.176v-176.484h-88.23c-66.032 0-69.206-24.656-69.206-70.684l-0.262-88.324h158.69l-18.704-176.45-139.854-0.058-0.13-512z" />
<glyph unicode="&#xe602;" glyph-name="twitter" d="M1024 765.582c-37.676-16.708-78.164-28.002-120.66-33.080 43.372 26 76.686 67.17 92.372 116.23-40.596-24.078-85.556-41.56-133.41-50.98-38.32 40.83-92.922 66.34-153.346 66.34-116.022 0-210.088-94.058-210.088-210.078 0-16.466 1.858-32.5 5.44-47.878-174.6 8.764-329.402 92.4-433.018 219.506-18.084-31.028-28.446-67.116-28.446-105.618 0-72.888 37.088-137.192 93.46-174.866-34.438 1.092-66.832 10.542-95.154 26.278-0.020-0.876-0.020-1.756-0.020-2.642 0-101.788 72.418-186.696 168.522-206-17.626-4.8-36.188-7.372-55.348-7.372-13.538 0-26.698 1.32-39.528 3.772 26.736-83.46 104.32-144.206 196.252-145.896-71.9-56.35-162.486-89.934-260.916-89.934-16.958 0-33.68 0.994-50.116 2.94 92.972-59.61 203.402-94.394 322.042-94.394 386.422 0 597.736 320.124 597.736 597.744 0 9.108-0.206 18.168-0.61 27.18 41.056 29.62 76.672 66.62 104.836 108.748z" />
<glyph unicode="&#xe603;" glyph-name="linkedin" d="M233.6-19.2v662.4h-220.8v-659.2h220.8v-3.2zM121.6 732.8c76.8 0 124.8 51.2 124.8 115.2s-48 115.2-121.6 115.2c-76.8-3.2-124.8-51.2-124.8-118.4 0-60.8 48-112 121.6-112v0 0zM355.2-19.2h220.8v368c0 19.2 0 38.4 6.4 54.4 16 38.4 51.2 80 112 80 80 0 112-60.8 112-150.4v-352h217.6v377.6c0 201.6-108.8 297.6-252.8 297.6-118.4 0-169.6-67.2-198.4-112v0 96h-220.8c6.4-60.8 3.2-659.2 3.2-659.2v0z" />
<glyph unicode="&#xe604;" glyph-name="basket" d="M918.4 390.4c0 16-12.8 32-28.8 32h-348.8v227.2c12.8 6.4 22.4 22.4 22.4 38.4 0 28.8-19.2 48-44.8 48s-44.8-19.2-44.8-44.8c0-16 9.6-28.8 22.4-38.4v-230.4h-361.6c-16 0-28.8-16-28.8-32 0 0 0-3.2 0-3.2 0-3.2 0-9.6 0-12.8l96-310.4c0 0 0-3.2 0-3.2l32-102.4c0-3.2 0-3.2 3.2-6.4 6.4-9.6 16-16 28.8-16h496c9.6 0 19.2 6.4 25.6 16 0 0 0 3.2 3.2 6.4l131.2 416c0 3.2 0 6.4 0 12.8-3.2-3.2-3.2 0-3.2 3.2zM169.6 358.4h128l6.4-48h-118.4l-16 48zM201.6 249.6h112l6.4-48h-102.4l-16 48zM252.8 92.8l-16 64h96l6.4-64h-86.4zM284.8 0l-16 48h80l6.4-48h-70.4zM476.8 0h-67.2l-6.4 48h73.6v-48zM476.8 92.8h-83.2l-6.4 64h89.6v-64zM476.8 201.6h-99.2l-6.4 48h105.6v-48zM476.8 310.4h-115.2l-6.4 48h124.8v-48zM611.2 0h-70.4v48h80l-9.6-48zM627.2 92.8h-89.6v64h96l-6.4-64zM646.4 201.6h-105.6v48h112l-6.4-48zM540.8 310.4v48h128l-6.4-48h-121.6zM739.2 0h-70.4l6.4 48h80l-16-48zM771.2 92.8h-86.4l6.4 64h96l-16-64zM806.4 201.6h-105.6l6.4 48h112l-12.8-48zM838.4 310.4h-121.6l6.4 48h128l-12.8-48z" />
<glyph unicode="&#xe605;" glyph-name="dash" d="M515.2 736c-284.8 0-515.2-227.2-515.2-512 0-99.2 28.8-185.6 76.8-262.4 12.8-19.2 32-25.6 54.4-25.6h761.6c22.4 0 41.6 6.4 54.4 25.6 48 76.8 76.8 166.4 76.8 265.6 0 281.6-227.2 508.8-508.8 508.8zM854.4 44.8c-9.6-12.8-25.6-12.8-44.8-12.8h-595.2c-16 0-32 0-41.6 12.8-38.4 60.8-60.8 128-60.8 204.8 0 220.8 179.2 400 403.2 400 220.8 0 400-176 400-396.8-3.2-76.8-22.4-144-60.8-208zM745.6 102.4c-3.2 0-3.2 0-6.4 3.2-6.4 3.2-6.4 9.6-3.2 16 22.4 38.4 35.2 83.2 35.2 131.2 0 140.8-115.2 259.2-259.2 259.2-16 0-32 0-48-3.2-6.4 0-12.8 3.2-12.8 9.6s3.2 12.8 9.6 12.8c19.2 3.2 35.2 6.4 54.4 6.4 156.8 0 281.6-128 281.6-281.6 0-51.2-12.8-99.2-38.4-140.8-3.2-9.6-9.6-12.8-12.8-12.8zM275.2 108.8c-3.2 0-9.6 3.2-9.6 6.4-22.4 41.6-35.2 89.6-35.2 137.6 0 76.8 28.8 147.2 83.2 198.4 3.2 6.4 12.8 6.4 16 0 3.2-3.2 3.2-12.8 0-16-48-48-76.8-112-76.8-182.4 0-44.8 9.6-86.4 32-124.8 3.2-6.4 0-12.8-6.4-16 0-3.2 0-3.2-3.2-3.2zM448 118.4c12.8-35.2 51.2-51.2 86.4-41.6s51.2 51.2 41.6 86.4c-12.8 35.2-211.2 387.2-211.2 387.2s70.4-396.8 83.2-432z" />
<glyph unicode="&#xe606;" glyph-name="help" d="M512 736c-236.8 0-425.6-156.8-425.6-348.8 0-115.2 67.2-217.6 172.8-278.4-25.6-80-76.8-137.6-102.4-160-6.4-6.4 0-12.8 3.2-12.8 176 12.8 291.2 67.2 352 102.4 0 0 0 0 0 0 236.8 0 425.6 156.8 425.6 348.8s-188.8 348.8-425.6 348.8zM652.8 230.4h-281.6c-19.2 0-35.2 16-35.2 35.2s16 35.2 35.2 35.2h281.6c19.2 0 35.2-16 35.2-35.2s-16-35.2-35.2-35.2zM652.8 352h-281.6c-19.2 0-35.2 16-35.2 35.2s16 35.2 35.2 35.2h281.6c19.2 0 35.2-16 35.2-35.2s-16-35.2-35.2-35.2zM652.8 473.6h-281.6c-19.2 0-35.2 16-35.2 35.2s16 35.2 35.2 35.2h281.6c19.2 0 35.2-16 35.2-35.2s-16-35.2-35.2-35.2z" />
<glyph unicode="&#xe607;" glyph-name="records" d="M607.36 478.4h-307.2c-16.64 0-29.76 13.44-29.76 29.76 0 16.64 13.44 29.76 29.76 29.76h307.2c16.64 0 29.76-13.44 29.76-29.76s-13.12-29.76-29.76-29.76zM607.36 342.72h-307.2c-16.64 0-29.76 13.44-29.76 29.76 0 16.64 13.44 29.76 29.76 29.76h307.2c16.64 0 29.76-13.44 29.76-29.76 0-16.64-13.12-29.76-29.76-29.76zM607.36 207.040h-307.2c-16.64 0-29.76 13.44-29.76 29.76 0 16.64 13.44 29.76 29.76 29.76h307.2c16.64 0 29.76-13.44 29.76-29.76 0-16.64-13.12-29.76-29.76-29.76zM728.32 614.72l-192 192h-357.12c-37.12 0-67.2-30.080-67.2-67.2v-734.080c0-37.12 30.080-67.2 67.2-67.2h544.32c37.12 0 67.2 30.080 67.2 67.2v546.88l-62.4 62.4zM723.52 0.64h-544.32c-2.56 0-4.8 2.24-4.8 4.8v734.080c0 2.56 2.24 4.8 4.8 4.8h356.8v-124.8c0-37.12 30.080-67.2 67.2-67.2h124.8v-546.88c0.32-2.56-1.92-4.8-4.48-4.8zM851.52 767.36l-192 192h-357.12c-37.12 0-67.2-30.080-67.2-67.2v-62.72h62.4v62.72c0 2.56 2.24 4.8 4.8 4.8h356.8v-124.8c0-37.12 30.080-67.2 67.2-67.2h124.8v-546.88c0-2.56-2.24-4.8-4.8-4.8h-35.2v-62.4h35.2c37.12 0 67.2 30.080 67.2 67.2v546.88l-62.080 62.4z" />
<glyph unicode="&#xe608;" glyph-name="dashbasket" d="M910.4 517.44c0 0 0 0 0 0 0 0.32 0.32 0.64 0.32 1.28 0 0 0 0.32 0 0.32 0 0.32 0 0.64 0.32 0.64 0 0.32 0 0.32 0 0.64 0 0 0 0.32 0 0.32 0.64 3.52 0.64 7.36 0 10.88 0 0 0 0 0 0 0 0.32-0.32 0.96-0.32 1.28 0 0 0 0 0 0 0 0.32-0.32 0.64-0.32 0.96 0 0 0 0.32 0 0.32 0 0.32-0.32 0.64-0.32 0.96 0 0 0 0.32-0.32 0.32 0 0.32-0.32 0.64-0.32 0.64 0 0.32 0 0.32-0.32 0.64 0 0.32-0.32 0.32-0.32 0.64s-0.32 0.32-0.32 0.64c0 0.32-0.32 0.32-0.32 0.64s-0.32 0.32-0.32 0.64c0 0.32-0.32 0.32-0.32 0.64 0 0-0.32 0.32-0.32 0.32-0.32 0.32-0.32 0.64-0.64 0.64 0 0 0 0.32-0.32 0.32-0.32 0.32-0.32 0.64-0.64 0.96 0 0 0 0 0 0.32-0.32 0.32-0.32 0.64-0.64 0.96 0 0 0 0 0 0-0.32 0.32-0.64 0.64-0.96 0.96 0 0 0 0 0 0-0.96 0.96-1.92 1.92-2.88 2.88 0 0 0 0 0 0-0.32 0.32-0.64 0.64-0.96 0.64 0 0 0 0-0.32 0-0.32 0.32-0.64 0.32-0.96 0.64 0 0-0.32 0-0.32 0.32-0.32 0-0.32 0.32-0.64 0.32s-0.32 0.32-0.64 0.32c0 0-0.32 0.32-0.32 0.32-0.32 0.32-0.64 0.32-0.96 0.64 0 0 0 0-0.32 0-1.92 0.96-4.16 1.6-6.080 2.24-0.32 0-0.32 0-0.64 0 0 0-0.32 0-0.32 0-2.24 0.32-4.48 0.64-6.72 0.64h-343.68v216.96c10.24 8.32 16.96 20.8 16.96 34.88 0 24.64-19.84 44.48-44.48 44.48s-44.48-19.84-44.48-44.48c0-14.080 6.72-26.88 16.96-34.88v-216.64h-155.52c-0.64 0-1.28 0-1.92 0h-184.64c-2.56 0-5.12-0.32-8-0.96-2.24-0.64-4.48-1.6-6.4-2.56 0 0-0.32-0.32-0.32-0.32-0.32 0-0.32-0.32-0.64-0.32-0.32-0.32-0.64-0.32-0.96-0.64 0 0-0.32 0-0.32-0.32-0.32-0.32-0.64-0.32-0.96-0.64 0 0-0.32 0-0.32-0.32-0.32-0.32-0.64-0.32-0.96-0.64 0 0 0 0-0.32-0.32s-0.64-0.32-0.64-0.64c0 0-0.32 0-0.32-0.32-0.32-0.32-0.32-0.32-0.64-0.64 0 0-0.32-0.32-0.32-0.32-0.32-0.32-0.32-0.32-0.64-0.64 0 0-0.32-0.32-0.32-0.32s-0.32-0.32-0.32-0.32-0.32-0.32-0.64-0.64c0 0 0 0 0-0.32-0.32-0.32-0.32-0.64-0.64-0.96 0 0 0 0 0 0-2.56-3.52-4.16-7.68-5.12-12.16 0 0 0-0.32 0-0.32 0-0.32 0-0.64 0-0.96 0-1.28-0.32-2.88 0-4.16 0 0 0-0.32 0-0.32 0-0.32 0-0.64 0-0.96s0-0.64 0-0.96c0 0 0-0.32 0-0.32 0.32-1.6 0.64-2.88 0.96-4.48l32-103.040c0-0.32 0.32-0.96 0.32-1.28l32-103.040c0-0.32 0-0.32 0.32-0.64l64.32-208c0.32-0.64 0.32-1.28 0.64-2.24 0 0 0-0.32 0-0.32 0.32-0.64 0.64-1.28 0.64-1.6s0.32-0.32 0.32-0.64 0.32-0.64 0.64-1.28c0.32-0.32 0.32-0.64 0.64-0.96 0-0.32 0.32-0.32 0.32-0.64 0.64-0.96 1.6-1.92 2.24-2.88 0 0 0 0 0 0 0.64-0.64 0.96-1.28 1.6-1.6 0 0 0 0 0.32-0.32 0.96-0.96 1.92-1.6 2.88-2.24 0 0 0.32-0.32 0.32-0.32 0.64-0.32 0.96-0.64 1.6-0.96 0.32 0 0.32-0.32 0.64-0.32 0.32-0.32 0.64-0.32 0.96-0.64 0.32 0 0.32-0.32 0.64-0.32 0.64-0.32 1.28-0.64 1.92-0.64 0 0 0.32 0 0.32 0 2.88-0.96 6.080-1.6 9.28-1.6 0.32 0 0.64 0 0.96 0h118.4c0.32 0 0.32 0 0.64 0s0.64 0 0.64 0h238.72c0.32 0 0.64 0 0.64 0 0.32 0 0.32 0 0.64 0h118.4c0.32 0 0.64 0 0.96 0 1.92 0 3.84 0.32 5.44 0.64 0 0 0 0 0 0 1.28 0.32 2.56 0.64 3.52 0.96 0.32 0 0.32 0.32 0.64 0.32s0.64 0.32 0.96 0.32c0.32 0.32 0.96 0.32 1.28 0.64 0.32 0 0.64 0.32 0.64 0.32 0.32 0.32 0.64 0.32 0.96 0.64s0.64 0.32 0.96 0.64c0.32 0.32 0.64 0.32 0.96 0.64s0.64 0.32 0.64 0.64 0.64 0.64 0.96 0.64c0.32 0.32 0.64 0.64 0.96 0.64 0.32 0.32 0.32 0.32 0.64 0.64s0.64 0.64 0.96 0.96c0.32 0.32 0.32 0.32 0.64 0.64s0.32 0.64 0.64 0.64 0.32 0.32 0.64 0.64 0.64 0.64 0.96 0.96c0.32 0.32 0.32 0.64 0.64 0.96 0 0.32 0.32 0.32 0.32 0.64 0.32 0.64 0.64 0.96 0.96 1.6 0 0.32 0.32 0.32 0.32 0.64 0.32 0.64 0.64 1.28 0.96 1.6 0 0 0 0 0 0 0.32 0.64 0.64 1.28 0.64 1.92 0 0 0 0 0 0l100.8 312c0 0.32 0.32 0.64 0.32 0.96l34.88 104.32zM796.48 345.28h-100.16l8 48.64h107.84l-15.68-48.64zM762.88 241.28h-83.52l8 48.64h91.2l-15.68-48.64zM729.28 136.96h-67.2l8 48.64h74.88l-15.68-48.64zM537.28 136.96l0.32 48.64h76.16l-8-48.64h-68.48zM413.12 136.96l-7.36 48.64h76.48l-0.32-48.64h-68.8zM289.6 136.96l-15.040 48.64h75.2l7.36-48.64h-67.52zM302.4 498.24l7.36-48.64h-116.8l-15.040 48.64h124.48zM482.88 289.92l-0.32-48.64h-85.12l-7.36 48.64h92.8zM381.44 345.28l-7.36 48.64h109.12l-0.32-48.64h-101.44zM538.24 289.92h92.8l-8-48.64h-85.12l0.32 48.64zM538.56 345.28l0.32 48.64h109.12l-8-48.64h-101.44zM539.52 449.6l0.32 48.64h125.76l-8-48.64h-118.080zM483.84 449.6h-118.080l-7.36 48.64h125.76l-0.32-48.64zM318.080 393.92l7.36-48.64h-100.16l-15.040 48.64h107.84zM333.76 289.92l7.36-48.64h-83.84l-15.040 48.64h91.52zM713.6 449.6l8 48.64h124.16l-15.68-48.64h-116.48z" />
<glyph unicode="&#xe609;" glyph-name="tools" d="M742.4 240c25.6-25.6 25.6-67.2 0-92.8s-67.2-25.6-96 0l-166.4 176-153.6-185.6c-16-16-41.6-16-54.4 0l-38.4 41.6c-16 16-16 41.6 0 57.6l179.2 166.4-86.4 76.8c-28.8 25.6-44.8 35.2-67.2 28.8-22.4-9.6-54.4-9.6-83.2 12.8-64 41.6-60.8 118.4-60.8 118.4l6.4 9.6 64-41.6c0 0 41.6-25.6 70.4 22.4 32 51.2-6.4 73.6-6.4 73.6l-64 41.6 6.4 9.6c0 0 60.8 38.4 131.2-3.2 44.8-25.6 64-76.8 54.4-124.8-6.4-28.8 0-41.6 22.4-67.2l86.4-86.4 102.4 105.6 76.8-76.8-102.4-99.2 179.2-163.2zM848 556.8c12.8 12.8 32 9.6 44.8 0l12.8-12.8c12.8-12.8 9.6-32 0-41.6l-60.8-60.8c-12.8-12.8-32-12.8-44.8 0l-12.8 12.8c-12.8 12.8-12.8 32 0 44.8 3.2 6.4-3.2 19.2-16 32-25.6 25.6-54.4 25.6-70.4 12.8l-19.2-22.4-76.8 76.8 22.4 19.2c22.4 25.6-3.2 51.2-3.2 51.2-67.2 67.2-160 64-160 64v25.6c188.8 48 259.2-32 284.8-57.6l54.4-54.4c12.8-16 0-54.4 19.2-73.6 6.4-12.8 16-16 25.6-16zM694.4 160c19.2 0 35.2 16 35.2 35.2s-16 35.2-35.2 35.2c-19.2 0-35.2-16-35.2-35.2s16-35.2 35.2-35.2z" />
<glyph unicode="&#xe60a;" glyph-name="recommended" d="M662.4 358.4l246.4 179.2h-304l-92.8 288-96-288h-304l246.4-179.2-92.8-288 246.4 176 243.2-176z" />
<glyph unicode="&#xe60b;" glyph-name="newsletters" d="M832 886.4c3.2 0 6.4-3.2 6.4-6.4v-864c0-3.2-3.2-6.4-6.4-6.4h-640c-3.2 0-6.4 3.2-6.4 6.4v864c0 3.2 3.2 6.4 6.4 6.4h640zM832 960h-640c-44.8 0-80-35.2-80-80v-864c0-44.8 35.2-80 80-80h640c44.8 0 80 35.2 80 80v864c0 44.8-35.2 80-80 80v0zM697.6 329.6h-364.8c-19.2 0-35.2 16-35.2 35.2s16 35.2 35.2 35.2h361.6c19.2 0 35.2-16 35.2-35.2s-12.8-35.2-32-35.2zM697.6 188.8h-364.8c-19.2 0-35.2 16-35.2 35.2s16 35.2 35.2 35.2h361.6c19.2 0 35.2-16 35.2-35.2s-12.8-35.2-32-35.2zM694.4 473.6h-115.2c-19.2 0-35.2 16-35.2 35.2s16 35.2 35.2 35.2h115.2c19.2 0 38.4-16 38.4-35.2s-19.2-35.2-38.4-35.2zM694.4 617.6h-115.2c-19.2 0-35.2 16-35.2 35.2s16 35.2 35.2 35.2h115.2c19.2 0 38.4-16 38.4-35.2s-19.2-35.2-38.4-35.2zM457.6 473.6h-134.4c-16 0-25.6 12.8-25.6 25.6v166.4c0 16 12.8 25.6 25.6 25.6h134.4c16 0 25.6-12.8 25.6-25.6v-163.2c0-16-9.6-28.8-25.6-28.8z" />
<glyph unicode="&#xe60c;" glyph-name="events" d="M832 716.8h-57.6v198.4c0 25.6-19.2 44.8-44.8 44.8h-12.8c-25.6 0-44.8-19.2-44.8-44.8v-198.4h-326.4v198.4c0 25.6-19.2 44.8-44.8 44.8s-44.8-19.2-44.8-44.8v-198.4h-64c-44.8 0-80-35.2-80-80v-624c0-41.6 35.2-76.8 80-76.8h640c44.8 0 80 35.2 80 80v620.8c0 44.8-35.2 80-80 80zM838.4 16c0-3.2-3.2-6.4-6.4-6.4h-640c-3.2 0-6.4 3.2-6.4 6.4v620.8c0 3.2 3.2 6.4 6.4 6.4h64v-64c0-25.6 19.2-44.8 44.8-44.8s44.8 19.2 44.8 44.8v64h326.4v-64c0-25.6 19.2-44.8 44.8-44.8h12.8c25.6 0 44.8 19.2 44.8 44.8v64h57.6c3.2 0 6.4-3.2 6.4-6.4v-620.8zM313.6 457.6h-67.2c-12.8 0-25.6-12.8-25.6-25.6v-67.2c0-12.8 12.8-25.6 25.6-25.6h67.2c12.8 0 25.6 12.8 25.6 25.6v67.2c0 16-12.8 25.6-25.6 25.6zM467.2 457.6h-67.2c-12.8 0-25.6-12.8-25.6-25.6v-67.2c0-12.8 12.8-25.6 25.6-25.6h67.2c12.8 0 25.6 12.8 25.6 25.6v67.2c0 16-12.8 25.6-25.6 25.6zM617.6 457.6h-67.2c-12.8 0-25.6-12.8-25.6-25.6v-67.2c0-12.8 12.8-25.6 25.6-25.6h67.2c12.8 0 25.6 12.8 25.6 25.6v67.2c0 16-9.6 25.6-25.6 25.6zM771.2 457.6h-67.2c-12.8 0-25.6-12.8-25.6-25.6v-67.2c0-12.8 12.8-25.6 25.6-25.6h67.2c12.8 0 25.6 12.8 25.6 25.6v67.2c0 16-9.6 25.6-25.6 25.6zM313.6 310.4h-67.2c-12.8 0-25.6-12.8-25.6-25.6v-67.2c0-12.8 12.8-25.6 25.6-25.6h67.2c12.8 0 25.6 12.8 25.6 25.6v67.2c0 16-12.8 25.6-25.6 25.6zM467.2 310.4h-67.2c-12.8 0-25.6-12.8-25.6-25.6v-67.2c0-12.8 12.8-25.6 25.6-25.6h67.2c12.8 0 25.6 12.8 25.6 25.6v67.2c0 16-12.8 25.6-25.6 25.6zM617.6 310.4h-67.2c-12.8 0-25.6-12.8-25.6-25.6v-67.2c0-12.8 12.8-25.6 25.6-25.6h67.2c12.8 0 25.6 12.8 25.6 25.6v67.2c0 16-9.6 25.6-25.6 25.6zM771.2 310.4h-67.2c-12.8 0-25.6-12.8-25.6-25.6v-67.2c0-12.8 12.8-25.6 25.6-25.6h67.2c12.8 0 25.6 12.8 25.6 25.6v67.2c0 16-9.6 25.6-25.6 25.6zM313.6 166.4h-67.2c-12.8 0-25.6-12.8-25.6-25.6v-67.2c0-12.8 12.8-25.6 25.6-25.6h67.2c12.8 0 25.6 12.8 25.6 25.6v67.2c0 12.8-12.8 25.6-25.6 25.6zM467.2 166.4h-67.2c-12.8 0-25.6-12.8-25.6-25.6v-67.2c0-12.8 12.8-25.6 25.6-25.6h67.2c12.8 0 25.6 12.8 25.6 25.6v67.2c0 12.8-12.8 25.6-25.6 25.6zM617.6 166.4h-67.2c-12.8 0-25.6-12.8-25.6-25.6v-67.2c0-12.8 12.8-25.6 25.6-25.6h67.2c12.8 0 25.6 12.8 25.6 25.6v67.2c0 12.8-9.6 25.6-25.6 25.6zM771.2 166.4h-67.2c-12.8 0-25.6-12.8-25.6-25.6v-67.2c0-12.8 12.8-25.6 25.6-25.6h67.2c12.8 0 25.6 12.8 25.6 25.6v67.2c0 12.8-9.6 25.6-25.6 25.6z" />
<glyph unicode="&#xe60d;" glyph-name="user" d="M899.2 169.6c-3.2 147.2-115.2 268.8-272 310.4-38.4 19.2-19.2 44.8-9.6 54.4 3.2 3.2 3.2 3.2 6.4 6.4 0 0 0 0 0 0v0c35.2 32 57.6 76.8 67.2 128 0 0 3.2 0 3.2 0h3.2c6.4 0 12.8 6.4 12.8 12.8v64c0 6.4-6.4 12.8-12.8 12.8h-3.2c0 0 0 0-3.2 0-3.2 105.6-38.4 201.6-179.2 201.6-134.4 0-172.8-96-179.2-201.6 0 0 0 0-3.2 0h-3.2c-6.4 0-12.8-6.4-12.8-12.8v-67.2c0-6.4 6.4-12.8 12.8-12.8h3.2c0 0 3.2 0 3.2 0 9.6-51.2 32-96 67.2-128v0c0 0 0 0 0 0 3.2-3.2 3.2-3.2 6.4-6.4 9.6-9.6 28.8-35.2-9.6-54.4-156.8-41.6-268.8-163.2-272-310.4v0-76.8c0-86.4 70.4-153.6 153.6-153.6h464c86.4 0 153.6 70.4 153.6 153.6l3.2 80z" />
<glyph unicode="&#xe60e;" glyph-name="edit-pen" d="M746.88 960l-529.6-783.040-64.96-210.24c-3.52-11.52 9.92-20.8 19.52-13.12l170.88 138.56 529.6 783.040-125.44 84.8zM348.8 105.28c-2.88-4.16-7.36-6.4-12.16-6.4-2.88 0-5.76 0.96-8 2.56l-98.24 66.24c-6.4 4.48-8.32 13.44-3.84 20.16s13.44 8.32 20.16 3.84l98.24-66.56c6.72-4.48 8.32-13.44 3.84-19.84zM776.64 737.6c-2.88-4.16-7.36-6.4-12.16-6.4-2.88 0-5.76 0.96-8 2.56l-98.24 66.56c-6.72 4.48-8.32 13.44-3.84 20.16s13.44 8.32 20.16 3.84l98.24-66.56c6.4-4.48 8.32-13.44 3.84-20.16zM801.28 774.4c-2.56-4.16-7.36-6.4-11.84-6.4-2.88 0-5.76 0.96-8 2.56l-98.24 66.56c-6.72 4.48-8.32 13.44-3.84 20.16s13.44 8.32 20.16 3.84l98.24-66.56c6.4-4.48 8-13.44 3.52-20.16zM816 807.040c-2.88 0-5.76 0.96-8 2.56l-98.24 66.56c-6.72 4.48-8.32 13.44-3.84 20.16s13.44 8.32 20.16 3.84l98.24-66.56c6.72-4.48 8.32-13.44 3.84-20.16-3.2-4.16-7.68-6.4-12.16-6.4zM681.28-64h-424.64c-8 0-14.4 8-14.4 16s6.4 16 14.4 16h424.64c8 0 14.4-8 14.4-16s-6.4-16-14.4-16z" />
<glyph unicode="&#xe60f;" glyph-name="eye" d="M985.28 466.88c-49.28 59.84-219.52 241.28-473.28 241.28s-424-181.44-473.28-241.28c-8.96-10.88-8.96-26.88 0-37.76 49.28-59.84 219.52-241.28 473.28-241.28s424 181.44 473.28 241.28c8.96 10.88 8.96 26.88 0 37.76zM512 250.24c-109.12 0-197.76 88.64-197.76 197.76s88.64 197.76 197.76 197.76 197.76-88.64 197.76-197.76-88.64-197.76-197.76-197.76zM620.48 490.88c-7.36-17.92-24.96-30.4-45.44-30.4-26.88 0-48.96 21.76-48.96 48.96 0 21.12 13.44 39.040 32 45.76-14.080 6.080-29.76 9.6-46.4 9.6-64.32 0-116.8-52.16-116.8-116.8 0-64.32 52.16-116.8 116.8-116.8s116.8 52.16 116.8 116.8c0.32 15.040-2.56 29.44-8 42.88z" />
<glyph unicode="&#xe610;" glyph-name="down-arrow" d="M826.56 444.8c-25.92 25.92-68.8 25.92-94.72 0l-155.84-154.56v475.52c0 36.48-27.52 66.24-64 66.24s-64-29.76-64-66.24v-475.52l-155.84 154.56c-25.92 25.92-68.48 25.92-94.4 0s-26.24-67.84-0.32-93.76l267.52-267.84c1.6-1.6 3.2-2.88 4.8-4.48 0.64-0.64 1.28-0.96 2.24-1.6s1.92-1.6 2.88-2.24c0.96-0.64 1.92-1.28 2.88-1.6 0.96-0.64 1.92-1.28 2.88-1.6 0.96-0.64 1.92-0.96 2.88-1.28s1.92-0.96 2.88-1.28c0.96-0.32 1.92-0.64 2.88-0.96s2.24-0.64 3.2-1.28c0.96-0.32 1.92-0.64 2.88-0.64 0.96-0.32 2.24-0.64 3.2-0.96 1.28-0.32 2.24-0.32 3.52-0.64 0.96 0 1.92-0.32 2.88-0.32 2.56-0.32 4.8-0.32 7.040-0.32s4.48 0 6.4 0.32c0.96 0 1.92 0.32 2.88 0.32 1.28 0.32 2.24 0.32 3.52 0.64s2.24 0.64 3.2 0.96c0.96 0.32 1.92 0.32 2.88 0.64s2.24 0.64 3.2 1.28c0.96 0.32 1.92 0.64 2.88 0.96s1.92 0.96 2.88 1.28c0.96 0.32 1.92 0.96 2.88 1.28 0.96 0.64 1.92 0.96 2.88 1.6s1.92 0.96 2.88 1.6c0.96 0.64 1.92 1.6 3.2 2.24 0.64 0.64 1.6 0.96 2.24 1.6 1.6 1.28 3.2 2.88 4.8 4.48l267.84 267.84c25.92 25.92 25.92 67.84 0 93.76z" />
<glyph unicode="&#xe611;" glyph-name="check" d="M885.12 814.080c-44.8 31.36-106.88 20.48-138.24-24.64l-336.32-481.28-151.040 127.36c-41.92 35.2-104.64 30.080-139.84-11.84s-30.080-104.64 11.84-139.84l223.040-188.16c4.8-4.16 9.92-7.36 15.040-10.56 1.28-0.96 2.24-2.24 3.52-3.2 17.28-12.16 37.12-17.92 56.64-17.92 31.36 0 62.080 14.72 81.28 42.56l397.76 569.6c32.32 44.8 21.44 106.56-23.68 137.92z" />
<glyph unicode="&#xe612;" glyph-name="remove" d="M648 448l219.84 219.84c37.44 37.44 37.44 98.56 0 136s-98.56 37.44-136 0l-219.84-219.84-219.84 219.84c-37.44 37.44-98.56 37.44-136 0s-37.44-98.56 0-136l219.84-219.84-219.84-219.84c-37.44-37.44-37.44-98.56 0-136s98.56-37.44 136 0l219.84 219.84 219.84-219.84c37.44-37.44 98.56-37.44 136 0s37.44 98.56 0 136l-219.84 219.84z" />
<glyph unicode="&#xe613;" glyph-name="down-pointer" d="M512 401.92l254.080 254.080c29.76 29.76 78.080 29.76 107.84 0s29.76-78.080 0-107.84l-307.84-307.84c0 0 0 0 0 0-14.72-14.72-34.24-22.4-53.76-22.4-9.6 0-19.52 1.92-28.8 5.44s-17.92 9.28-25.28 16.64l-307.84 308.16c-15.040 14.72-22.4 34.24-22.4 53.76s7.36 39.040 22.4 53.76c29.76 29.76 78.080 29.76 107.84 0l253.76-253.76z" />
<glyph unicode="&#xe614;" glyph-name="left-arrow" d="M508.8 133.76c25.92 25.92 25.92 68.8 0 94.72l-154.56 155.52h475.52c36.48 0 66.24 27.52 66.24 64s-29.76 64-66.24 64h-475.52l154.56 155.84c25.92 25.92 25.92 68.48 0 94.4s-67.84 26.24-93.76 0.32l-267.84-267.52c-1.6-1.6-2.88-3.2-4.48-4.8-0.64-0.64-0.96-1.28-1.6-2.24s-1.6-1.92-2.24-2.88c-0.64-0.96-1.28-1.92-1.6-2.88-0.64-0.96-1.28-1.92-1.6-2.88-0.64-0.96-0.96-1.92-1.28-2.88s-0.96-1.92-1.28-2.88c-0.32-0.96-0.64-1.92-0.96-2.88s-0.64-2.24-1.28-3.2c-0.32-0.96-0.64-1.92-0.64-2.88-0.32-0.96-0.64-2.24-0.96-3.2-0.32-1.28-0.32-2.24-0.64-3.52 0-0.96-0.32-1.92-0.32-2.88 0-2.56-0.32-4.48-0.32-6.72s0-4.48 0.32-6.4c0-0.96 0.32-1.92 0.32-2.88 0.32-1.28 0.32-2.24 0.64-3.52s0.64-2.24 0.96-3.2c0.32-0.96 0.32-1.92 0.64-2.88s0.64-2.24 1.28-3.2c0.32-0.96 0.64-1.92 0.96-2.88s0.96-1.92 1.28-2.88c0.32-0.96 0.96-1.92 1.28-2.88 0.64-1.6 1.28-2.56 1.92-3.2 0.64-0.96 0.96-1.92 1.6-2.88s1.6-1.92 2.24-3.2c0.64-0.64 0.96-1.6 1.6-2.24 1.28-1.6 2.88-3.2 4.48-4.8l267.84-267.84c25.92-25.6 67.84-25.6 93.44 0.32z" />
<glyph unicode="&#xe615;" glyph-name="plus" d="M576 512v246.72c0 40.32-23.36 73.28-64 73.28s-64-32.96-64-73.28v-246.72h-246.72c-40.32 0-73.28-23.36-73.28-64s32.96-64 73.28-64h246.72v-246.72c0-40.64 23.36-73.28 64-73.28s64 32.96 64 73.28v246.72h246.72c40.64 0 73.28 23.36 73.28 64s-32.96 64-73.28 64h-246.72z" />
<glyph unicode="&#xe616;" glyph-name="left-pointer" d="M465.92 448l254.080 254.080c29.76 29.76 29.76 78.080 0 107.84s-78.080 29.76-107.84 0l-307.84-307.84c0 0 0 0 0 0-14.72-14.72-22.4-34.24-22.4-53.76 0-9.6 1.92-19.52 5.44-28.8 3.84-9.28 9.28-17.92 16.64-25.28l307.84-307.84c14.72-14.72 34.24-22.4 53.76-22.4s39.040 7.36 53.76 22.4c29.76 29.76 29.76 78.080 0 107.84l-253.44 253.76z" />
<glyph unicode="&#xe617;" glyph-name="search" d="M584.96 928c-224.64 0-406.72-182.080-406.72-407.040 0-81.6 24.32-157.44 65.6-221.44l-186.88-186.88c-32.96-32.96-32.96-86.72 0-120 16.32-16.32 38.080-24.64 59.84-24.64s43.52 8.32 59.84 24.96l186.88 186.88c63.68-41.28 139.52-65.6 221.44-65.6 224.64 0 407.040 182.080 407.040 407.040 0 224.64-182.080 406.72-407.040 406.72zM584.96 249.6c-149.44 0-271.36 121.6-271.36 271.36 0 149.44 121.6 271.36 271.36 271.36s271.36-121.6 271.36-271.36c0-149.44-121.6-271.36-271.36-271.36z" />
<glyph unicode="&#xe618;" glyph-name="right-arrow" d="M515.2 762.24c-25.92-25.92-25.92-68.8 0-94.72l154.88-155.52h-475.52c-36.8 0-66.56-27.52-66.56-64s29.76-64 66.24-64h475.52l-154.56-155.84c-25.92-25.92-25.92-68.48 0-94.4s67.84-26.24 93.76-0.32l267.84 267.52c1.6 1.6 2.88 3.2 4.48 4.8 0.64 0.64 0.96 1.28 1.6 2.24s1.6 1.92 2.24 2.88c0.64 0.96 1.28 1.92 1.6 2.88 0.64 0.96 1.28 1.92 1.6 2.88 0.64 0.96 0.96 1.92 1.28 2.88s0.96 1.92 1.28 2.88c0.32 0.96 0.64 1.92 0.96 2.88s0.64 2.24 1.28 3.2c0.32 0.96 0.64 1.92 0.64 2.88 0.32 0.96 0.64 2.24 0.96 3.2 0.32 1.28 0.32 2.24 0.64 3.52 0 0.96 0.32 1.92 0.32 2.88 0.32 2.56 0.32 4.8 0.32 6.72 0 2.24 0 4.48-0.32 6.4 0 0.96-0.32 1.92-0.32 2.88-0.32 1.28-0.32 2.24-0.64 3.52s-0.64 2.24-0.96 3.2c-0.32 0.96-0.32 1.92-0.64 2.88s-0.64 2.24-1.28 3.2c-0.32 0.96-0.64 1.92-0.96 2.88s-0.96 1.92-1.28 2.88c-0.32 0.96-0.96 1.92-1.28 2.88-0.64 0.96-0.96 1.92-1.6 2.88s-0.96 1.92-1.6 2.88c-0.64 0.96-1.6 1.92-2.24 3.2-0.64 0.64-0.96 1.6-1.6 2.24-1.28 1.6-2.88 3.2-4.48 4.8l-267.84 267.84c-25.92 25.92-67.84 25.92-93.76 0z" />
<glyph unicode="&#xe619;" glyph-name="right-pointer" d="M558.080 448l-253.76 254.080c-29.76 29.76-29.76 78.080 0 107.84s78.080 29.76 107.84 0l307.84-307.84c0 0 0 0 0 0 14.72-14.72 22.4-34.24 22.4-53.76 0-9.6-1.92-19.52-5.44-28.8-3.84-9.28-9.28-17.92-16.64-25.28l-307.84-307.84c-14.72-14.72-34.24-22.4-53.76-22.4s-39.040 7.36-53.76 22.4c-29.76 29.76-29.76 78.080 0 107.84l253.12 253.76z" />
<glyph unicode="&#xe61a;" glyph-name="trophy" d="M1021.12 851.52c0.64 9.28-2.56 18.88-8.96 25.6-6.4 7.040-15.36 10.88-24.96 10.88h-136.96c0.64 12.48 1.28 25.28 1.28 38.080 0 18.88-15.36 33.92-33.92 33.92h-611.2c-18.56 0-33.92-15.040-33.92-33.92 0-12.8 0.64-25.6 1.28-38.080h-136.96c-9.6 0-18.56-3.84-24.96-10.88s-9.6-16.32-8.96-25.6c12.16-159.040 109.12-455.68 384.96-471.36 38.080-56 73.28-112.96 73.28-158.72 0-140.48-192.32-212.48-194.56-213.12-16.64-3.84-27.84-19.84-25.92-37.12 1.92-16.96 16.32-30.080 33.6-30.080h475.2c0.32 0 0.64 0 0.64 0 18.88 0 33.92 15.040 33.92 33.92 0 17.28-12.8 31.36-29.12 33.6-21.12 5.44-192.32 79.36-192.32 212.48 0 45.76 35.2 102.72 73.28 158.72 276.16 16 373.12 312.64 385.28 471.68zM75.2 820.16h106.56c24-144 92.8-267.52 155.52-364.48-192.96 46.72-248 273.92-262.080 364.48zM948.8 820.16c-14.4-90.56-69.44-317.76-262.080-364.48 62.72 96.96 131.52 220.48 155.52 364.48h106.56z" />
<glyph unicode="&#xe61b;" glyph-name="telephone" d="M717.12 832h-410.24c-19.2 0-34.88-15.68-34.88-34.88v-698.24c0-19.2 15.68-34.88 34.88-34.88h410.24c19.2 0 34.88 15.68 34.88 34.88v698.24c0 19.2-15.68 34.88-34.88 34.88zM487.040 784h51.84c6.72 0 12.16-5.44 12.16-12.16s-5.44-12.16-12.16-12.16h-51.84c-6.72 0-12.16 5.44-12.16 12.16s5.44 12.16 12.16 12.16zM512 103.040c-21.12 0-38.080 16.96-38.080 38.080s16.96 38.080 38.080 38.080 38.080-16.96 38.080-38.080c0-21.12-16.96-38.080-38.080-38.080zM696.96 218.88h-369.92v499.52h369.92v-499.52z" />
<glyph unicode="&#xe61c;" glyph-name="letter" d="M512 485.44l334.72 200.96c-4.8 0.96-9.6 1.92-14.4 1.92h-640.64c-5.12 0-9.92-0.64-14.4-1.92l334.72-200.96zM528.32 420.48c0 0-0.32 0-0.32-0.32-1.6-0.96-3.52-1.6-5.44-2.24-0.96-0.32-1.6-0.64-2.56-0.96-2.24-0.64-4.48-0.96-7.040-0.96 0 0-0.64 0-0.96 0 0 0 0 0 0 0s0 0 0 0c-0.32 0-0.96 0-1.28 0.32-2.24 0-4.8 0.32-7.040 0.96-0.96 0.32-1.6 0.64-2.56 0.96-1.92 0.64-3.52 1.28-5.44 2.24 0 0-0.32 0-0.32 0.32l-365.12 218.88c-1.28-4.8-2.24-9.92-2.24-15.36v-352.64c0-35.2 28.48-63.68 63.68-63.68h640.64c35.2 0 63.68 28.48 63.68 63.68v352.64c0 5.44-0.96 10.56-2.24 15.68l-365.44-219.52z" />
<glyph unicode="&#xe61d;" glyph-name="download" d="M826.24 529.92c-25.92 25.92-68.8 25.92-94.72 0l-155.52-154.56v475.52c0 36.48-27.52 66.24-64 66.24s-64-29.76-64-66.24v-475.52l-155.84 154.56c-25.92 25.92-68.48 25.92-94.4 0s-26.24-67.84-0.32-93.76l267.52-267.84c1.6-1.6 3.2-2.88 4.8-4.48 0.64-0.64 1.28-0.96 2.24-1.6s1.92-1.6 2.88-2.24c0.96-0.64 1.92-1.28 2.88-1.6 0.96-0.64 1.92-1.28 2.88-1.6 0.96-0.64 1.92-0.96 2.88-1.28s1.92-0.96 2.88-1.28c0.96-0.32 1.92-0.64 2.88-0.96s2.24-0.64 3.2-1.28c0.96-0.32 1.92-0.64 2.88-0.64 0.96-0.32 2.24-0.64 3.2-0.96 1.28-0.32 2.24-0.32 3.52-0.64 0.96 0 1.92-0.32 2.88-0.32 2.24-0.32 4.48-0.32 6.4-0.32 2.24 0 4.48 0 6.4 0.32 0.96 0 1.92 0.32 2.88 0.32 1.28 0.32 2.24 0.32 3.52 0.64s2.24 0.64 3.2 0.96c0.96 0.32 1.92 0.32 2.88 0.64s2.24 0.64 3.2 1.28c0.96 0.32 1.92 0.64 2.88 0.96s1.92 0.96 2.88 1.28c0.96 0.32 1.92 0.96 2.88 1.28 0.96 0.64 1.92 0.96 2.88 1.6s1.92 0.96 2.88 1.6c0.96 0.64 1.92 1.6 3.2 2.24 0.64 0.64 1.6 0.96 2.24 1.6 1.6 1.28 3.2 2.88 4.8 4.48l267.84 267.84c26.24 25.92 26.24 67.84 0.32 93.76zM845.76 56.96v0c0 35.2-28.8 64-64 64h-539.52c-35.2 0-64-28.8-64-64v0c0-35.2 28.8-64 64-64h539.84c35.2 0 63.68 28.8 63.68 64z" />
<glyph unicode="&#xe61e;" glyph-name="lightbulb" d="M427.84 81.92c16.32-29.76 48-49.92 84.16-49.92s67.84 20.16 84.16 49.92h-168.32zM603.52 240c16.64 0 33.28 16.64 33.28 33.28 0 141.44 124.8 160.64 124.8 341.12 0 137.92-111.68 249.6-249.6 249.6s-249.6-111.68-249.6-249.6c0-180.48 124.8-199.68 124.8-341.12 0-16.64 16.64-33.28 33.28-33.28h183.040zM620.16 194.24c0-11.52-9.28-20.8-20.8-20.8h-174.72c-11.52 0-20.8 9.28-20.8 20.8v0c0 11.52 9.28 20.8 20.8 20.8h174.72c11.52 0 20.8-9.28 20.8-20.8v0zM620.16 127.68c0-11.52-9.28-20.8-20.8-20.8h-174.72c-11.52 0-20.8 9.28-20.8 20.8v0c0 11.52 9.28 20.8 20.8 20.8h174.72c11.52 0 20.8-9.28 20.8-20.8v0z" />
<glyph unicode="&#xe61f;" glyph-name="consulting" d="M397.76 571.84h-114.56v57.28c0 10.56-8.64 19.2-19.2 19.2h-19.2v228.48c0 10.56-8.64 19.2-19.2 19.2s-19.2-8.64-19.2-19.2v-228.8h-19.2c-10.56 0-19.2-8.64-19.2-19.2v-57.28c-42.24 0-76.16-34.24-76.16-76.16v-209.6c0-24.96 16-46.080 38.080-54.080v-212.8c0-10.56 8.64-19.2 19.2-19.2h266.88c10.56 0 19.2 8.64 19.2 19.2v212.8c22.080 8 38.080 29.12 38.080 54.080v209.6c0.64 42.24-33.6 76.48-75.52 76.48zM359.36 304.96h-152.32c-10.56 0-19.2 8.64-19.2 19.2s8.64 19.2 19.2 19.2h152.64c10.56 0 19.2-8.64 19.2-19.2-0.32-10.56-8.96-19.2-19.52-19.2zM359.36 381.12h-152.32c-10.56 0-19.2 8.64-19.2 19.2s8.64 19.2 19.2 19.2h152.64c10.56 0 19.2-8.64 19.2-19.2-0.32-10.56-8.96-19.2-19.52-19.2zM359.36 457.6h-152.32c-10.56 0-19.2 8.64-19.2 19.2s8.64 19.2 19.2 19.2h152.64c10.56 0 19.2-8.64 19.2-19.2-0.32-10.88-8.96-19.2-19.52-19.2zM855.040 571.84h-114.24v57.28c0 10.56-8.64 19.2-19.2 19.2h-19.2v228.48c0 10.56-8.64 19.2-19.2 19.2s-19.2-8.64-19.2-19.2v-228.8h-19.2c-10.56 0-19.2-8.64-19.2-19.2v-57.28c-42.24 0-76.16-34.24-76.16-76.16v-209.6c0-24.96 16-46.080 38.080-54.080v-212.8c0-10.56 8.64-19.2 19.2-19.2h266.88c10.56 0 19.2 8.64 19.2 19.2v212.8c22.080 8 38.080 29.12 38.080 54.080v209.6c0.64 42.24-33.6 76.48-75.84 76.48zM816.96 304.96h-152.64c-10.56 0-19.2 8.64-19.2 19.2s8.64 19.2 19.2 19.2h152.64c10.56 0 19.2-8.64 19.2-19.2s-8.64-19.2-19.2-19.2zM816.96 381.12h-152.64c-10.56 0-19.2 8.64-19.2 19.2s8.64 19.2 19.2 19.2h152.64c10.56 0 19.2-8.64 19.2-19.2s-8.64-19.2-19.2-19.2zM816.96 457.6h-152.64c-10.56 0-19.2 8.64-19.2 19.2s8.64 19.2 19.2 19.2h152.64c10.56 0 19.2-8.64 19.2-19.2 0-10.88-8.64-19.2-19.2-19.2z" />
<glyph unicode="&#xe620;" glyph-name="workshops" d="M956.48 700.16c-5.44 36.16-38.72 62.72-75.2 58.56-27.84-3.2-49.6-22.72-57.28-48l14.4-52.48c3.84-13.76-0.32-28.8-10.24-39.040l-49.92-49.92c-10.24-10.24-24.96-14.080-39.040-10.24l-69.44 18.88c-13.76 3.84-24.32 14.4-28.16 28.16l-18.88 69.44c-3.84 13.76 0.32 28.8 10.24 39.040l49.92 49.92c10.24 10.24 24.96 14.080 39.040 10.24l59.52-16.32c23.36 6.72 42.56 25.6 48 51.2 7.68 36.48-17.6 73.28-54.080 80.96-80.96 16.96-164.48-10.56-219.84-72.96-64.32-72.32-74.24-176-32.32-258.56l-437.44-437.12c-27.84-27.84-27.84-72.96 0-100.8s72.96-27.84 100.8 0l438.080 438.080c86.4-43.52 194.88-29.12 267.2 42.88 51.84 51.52 75.84 125.76 64.64 198.080z" />
<glyph unicode="&#xe621;" glyph-name="knowledge" d="M404.16 109.76v0.32zM515.2 764.8c12.16 0 21.76 9.92 21.76 21.76v87.68c0 11.84-9.6 21.76-21.76 21.76s-21.76-9.92-21.76-21.76v-87.36c-0.32-12.16 9.6-22.080 21.76-22.080zM662.080 725.44c3.52-1.92 7.36-3.2 11.2-3.2 7.36 0 14.72 3.84 18.88 10.88l44.48 75.2c6.080 10.56 2.56 23.68-7.68 30.080-10.24 6.080-23.68 2.56-30.080-7.68l-44.48-75.2c-6.080-10.56-2.88-24 7.68-30.080zM777.6 610.56c3.52 0 7.040 0.96 10.24 2.56l77.12 41.28c10.56 5.76 14.72 18.88 8.96 29.44s-18.88 14.72-29.44 8.96l-77.12-41.28c-10.56-5.76-14.72-18.88-8.96-29.44 3.84-7.36 11.52-11.52 19.2-11.52zM902.080 506.56v0l-87.36 0.32c-12.16 0-21.76-9.6-21.76-21.76s9.92-22.4 21.76-22.4v0l87.36 0.32c12.16 0 21.76 9.92 21.76 22.080 0 11.84-9.92 21.44-21.76 21.44zM858.24 314.56l-72.96 48.32c-9.92 6.72-23.68 3.84-30.4-6.080-6.72-10.24-3.84-23.68 6.080-30.4l72.96-48.32c3.84-2.56 8-3.52 12.16-3.52 7.040 0 14.080 3.52 18.24 9.92 6.72 9.92 4.16 23.36-6.080 30.080zM332.16 733.12c4.16-7.040 11.52-10.88 18.88-10.88 3.84 0 7.68 0.96 11.2 3.2 10.56 6.080 13.76 19.52 7.68 30.080l-44.48 75.2c-6.4 10.56-19.84 13.76-30.080 7.68-10.56-6.080-14.080-19.52-7.68-29.76l44.48-75.52zM159.040 654.4l77.12-41.28c3.2-1.6 6.72-2.56 10.24-2.56 7.68 0 15.36 4.16 19.2 11.52 5.76 10.56 1.6 24-8.96 29.44l-77.12 41.28c-10.56 5.76-24 1.92-29.44-8.96-5.76-10.56-1.92-23.68 8.96-29.44zM209.6 462.72c12.16 0 21.76 10.24 21.76 22.080 0 12.16-9.92 22.080-21.76 22.080l-87.36-0.32c-12.16 0-21.76-9.6-21.76-21.44 0-12.16 9.92-21.76 21.76-21.76l87.36-0.64zM238.72 362.56l-72.96-48.32c-10.24-6.72-12.8-20.16-6.080-30.4 4.16-6.4 11.2-9.92 18.24-9.92 4.16 0 8.32 1.28 12.16 3.52l72.96 48.32c10.24 6.72 12.8 20.16 6.080 30.4s-20.16 13.12-30.4 6.4zM626.88 267.52c77.44 40 130.24 120.64 130.24 213.76 0 131.84-105.92 239.040-237.44 240.64-0.96 0-1.92 0-2.88 0-130.56 0-238.4-105.28-240.64-236.16-1.6-94.72 51.52-177.28 129.6-217.92 8.96-4.48 14.72-13.76 14.72-23.68l0.32-72c-9.28-1.92-16.32-10.24-16.32-20.16 0-11.52 9.6-20.8 21.12-20.8-11.52 0-21.12-9.28-21.12-21.12 0-11.52 9.28-21.12 20.8-21.12-11.52 0-21.44-9.28-21.44-21.12v0c0-11.52 9.92-21.76 21.76-21.76h22.080v-18.88c0-14.72 13.76-27.2 28.16-27.2h81.6c14.72 0 27.52 12.48 27.52 27.2v18.88h22.72c11.52 0 20.8 10.24 20.8 21.76v0c0 11.52-9.6 21.12-21.12 21.12 11.52 0 21.12 9.6 21.12 21.12v0c0 11.52-9.28 20.8-21.12 20.8 11.52 0 21.12 9.28 21.12 20.8 0 9.92-6.72 17.92-16 20.16l-0.32 72c0.64 9.92 6.080 19.2 14.72 23.68zM343.68 376.32c-19.84 32.64-30.080 70.080-29.44 108.48 0.96 53.12 22.4 103.040 60.8 140.48 38.080 37.44 88.32 57.92 141.44 57.92 0.96 0 1.6 0 2.56 0 53.44-0.64 103.68-22.080 141.12-60.16 37.76-38.080 58.24-88.64 58.24-142.080 0-37.76-10.56-74.56-30.4-106.56-19.2-31.040-46.4-56.32-79.040-72.96-21.76-11.2-34.88-33.28-34.88-57.92v0 0l-0.32-37.44h-41.6v127.040c0 9.6-8 17.6-17.6 17.6s-17.6-7.68-17.6-17.6v-127.040h-38.4v36.8c0 24.32-13.44 47.040-35.2 58.24-32.64 17.28-60.16 43.52-79.68 75.2z" />
<glyph unicode="&#xe622;" glyph-name="webinars" d="M970.88 225.92h-64.96c2.24 4.48 3.52 6.72 3.52 9.92v464.32c0 7.36-6.080 12.16-13.44 12.16h-772.48c-7.36 0-13.44-4.8-13.44-12.16v-464.32c0-3.52 1.28-5.44 3.52-9.92h-60.48c-11.52 0-21.12-9.6-21.12-21.12 0-11.84 9.6-21.12 21.12-21.12h917.44c11.84 0 21.12 9.6 21.12 21.12 0.32 11.52-9.28 21.12-20.8 21.12zM869.12 274.88c0-4.8-3.84-8.96-8.96-8.96h-698.56c-4.8 0-8.96 3.84-8.96 8.96v386.24c0 4.8 3.84 8.96 8.96 8.96h698.88c4.8 0 8.96-3.84 8.96-8.96v-386.24zM511.68 572.16c-56.64 0-102.72-46.080-102.72-102.72s46.080-102.72 102.72-102.72c56.64 0 102.72 46.080 102.72 102.72s-46.080 102.72-102.72 102.72zM548.48 461.44l-45.44-30.080c-6.72-4.48-15.68 0.32-15.68 8.32v60.16c0 8 8.96 12.8 15.68 8.32l45.44-30.080c6.080-3.52 6.080-12.48 0-16.64z" />
<glyph unicode="&#xe623;" glyph-name="conferences" d="M934.4 694.080l-838.4-169.92v2.24c0 9.6-8 17.6-17.6 17.6h-28.8c-9.6 0-17.6-8-17.6-17.6v-124.8c0-9.6 8-17.6 17.6-17.6h28.8c9.6 0 17.6 8 17.6 17.6v7.040l286.4-57.92-9.92-55.68c-5.44-25.6 11.84-50.88 37.44-56.64l168.96-36.48c3.52-0.64 7.040-0.96 10.24-0.96 22.080 0 41.92 15.36 46.72 37.44l12.8 58.56 289.92-58.24c24.64-4.8 53.44 13.76 53.44 38.72v377.92c0 24.96-33.28 43.84-57.6 38.72zM593.6 248c-0.64-2.24-2.56-3.2-3.84-3.2-0.32 0-0.64 0-0.96 0l-168.32 36.48c-2.24 0.32-3.52 2.56-3.2 4.8l12.16 56.32 176.64-36.16-12.48-58.24z" />
<glyph unicode="&#xe624;" glyph-name="dash-webinars" d="M512 832c-212.16 0-384-171.84-384-384s171.84-384 384-384 384 171.84 384 384-171.84 384-384 384zM633.6 436.8l-166.72-116.8c-10.88-7.68-25.92 0.32-25.92 13.44v229.76c0 13.12 14.72 21.12 25.6 13.76l167.040-112.64c9.6-6.72 9.6-20.8 0-27.52z" />
<glyph unicode="&#xe625;" glyph-name="audio" d="M298.56 472v0c0 0 0 0 0 0zM912.64 434.24c0 0 0 0.32 0 0.32 0 54.080-10.56 106.56-31.36 155.84-20.16 47.68-48.96 90.56-85.76 127.36s-79.68 65.6-127.36 85.76c-49.6 21.44-102.080 32-156.16 32s-106.56-10.56-155.84-31.36c-48-20.48-90.56-49.28-127.36-86.080s-65.92-79.68-86.080-127.36c-20.8-49.28-31.36-101.76-31.36-155.84 0 0 0-0.32 0-0.32-48.32-36.48-79.36-91.52-79.36-153.6 0-97.92 77.12-179.2 178.56-194.56 2.88-14.72 16-25.92 31.68-25.92h24.96c16.64 0 30.4 13.12 32 29.44 0 0 0 0 0 0v0.64c0 0.64 0 1.6 0 2.24v376c0 0.64 0 1.6 0 2.24v0.96c0 0 0 0 0 0-1.6 16-15.36 28.8-32 28.8h-25.28c-15.36 0-28.16-10.56-31.36-24.96-3.52-0.64-7.040-1.28-10.24-1.92 8.64 69.12 39.68 133.12 89.6 183.36 59.2 58.88 138.24 91.52 222.080 91.52s162.88-32.64 222.080-92.16c49.92-49.92 81.28-113.92 89.6-183.36-3.52 0.64-7.040 1.28-10.24 1.92-3.2 14.4-16 24.96-31.36 24.96h-24.96c-16.64 0-30.72-12.48-32.32-28.8 0 0-0.32 0.32-0.32 0.32v-0.96c0-0.64 0-1.6 0-2.24v-376c0-0.64 0-1.6 0-2.24v-0.64c0 0 0.32 0 0.32 0 1.6-16.32 15.68-29.44 32.32-29.44h24.96c15.36 0 28.48 11.2 31.68 25.92 101.12 15.36 178.56 96.64 178.56 194.56-0.32 62.4-31.36 117.44-79.68 153.6z" />
<glyph unicode="&#xe900;" glyph-name="youtube" d="M1013.8 652.8c0 0-10 70.6-40.8 101.6-39 40.8-82.6 41-102.6 43.4-143.2 10.4-358.2 10.4-358.2 10.4h-0.4c0 0-215 0-358.2-10.4-20-2.4-63.6-2.6-102.6-43.4-30.8-31-40.6-101.6-40.6-101.6s-10.2-82.8-10.2-165.8v-77.6c0-82.8 10.2-165.8 10.2-165.8s10-70.6 40.6-101.6c39-40.8 90.2-39.4 113-43.8 82-7.8 348.2-10.2 348.2-10.2s215.2 0.4 358.4 10.6c20 2.4 63.6 2.6 102.6 43.4 30.8 31 40.8 101.6 40.8 101.6s10.2 82.8 10.2 165.8v77.6c-0.2 82.8-10.4 165.8-10.4 165.8zM406.2 315.2v287.8l276.6-144.4-276.6-143.4z" />
<glyph unicode="&#xeb87;" glyph-name="stats-bars" d="M0 128h1024v-128h-1024zM128 384h128v-192h-128zM320 640h128v-448h-128zM512 448h128v-256h-128zM704 832h128v-640h-128z" />
<glyph unicode="&#xec8e;" glyph-name="sphere" d="M480 896c-265.096 0-480-214.904-480-480 0-265.098 214.904-480 480-480 265.098 0 480 214.902 480 480 0 265.096-214.902 480-480 480zM751.59 256c8.58 40.454 13.996 83.392 15.758 128h127.446c-3.336-44.196-13.624-87.114-30.68-128h-112.524zM208.41 576c-8.58-40.454-13.996-83.392-15.758-128h-127.444c3.336 44.194 13.622 87.114 30.678 128h112.524zM686.036 576c9.614-40.962 15.398-83.854 17.28-128h-191.316v128h174.036zM512 640v187.338c14.59-4.246 29.044-11.37 43.228-21.37 26.582-18.74 52.012-47.608 73.54-83.486 14.882-24.802 27.752-52.416 38.496-82.484h-155.264zM331.232 722.484c21.528 35.878 46.956 64.748 73.54 83.486 14.182 10 28.638 17.124 43.228 21.37v-187.34h-155.264c10.746 30.066 23.616 57.68 38.496 82.484zM448 576v-128h-191.314c1.88 44.146 7.666 87.038 17.278 128h174.036zM95.888 256c-17.056 40.886-27.342 83.804-30.678 128h127.444c1.762-44.608 7.178-87.546 15.758-128h-112.524zM256.686 384h191.314v-128h-174.036c-9.612 40.96-15.398 83.854-17.278 128zM448 192v-187.34c-14.588 4.246-29.044 11.372-43.228 21.37-26.584 18.74-52.014 47.61-73.54 83.486-14.882 24.804-27.75 52.418-38.498 82.484h155.266zM628.768 109.516c-21.528-35.876-46.958-64.746-73.54-83.486-14.184-9.998-28.638-17.124-43.228-21.37v187.34h155.266c-10.746-30.066-23.616-57.68-38.498-82.484zM512 256v128h191.314c-1.88-44.146-7.666-87.040-17.28-128h-174.034zM767.348 448c-1.762 44.608-7.178 87.546-15.758 128h112.524c17.056-40.886 27.344-83.806 30.68-128h-127.446zM830.658 640h-95.9c-18.638 58.762-44.376 110.294-75.316 151.428 42.536-20.34 81.058-47.616 114.714-81.272 21.48-21.478 40.362-44.938 56.502-70.156zM185.844 710.156c33.658 33.658 72.18 60.932 114.714 81.272-30.942-41.134-56.676-92.666-75.316-151.428h-95.898c16.138 25.218 35.022 48.678 56.5 70.156zM129.344 192h95.898c18.64-58.762 44.376-110.294 75.318-151.43-42.536 20.34-81.058 47.616-114.714 81.274-21.48 21.478-40.364 44.938-56.502 70.156zM774.156 121.844c-33.656-33.658-72.18-60.934-114.714-81.274 30.942 41.134 56.678 92.668 75.316 151.43h95.9c-16.14-25.218-35.022-48.678-56.502-70.156z" />
<glyph unicode="&#xec8f;" glyph-name="sphere2" d="M480 896c-265.096 0-480-214.904-480-480 0-265.098 214.904-480 480-480 265.098 0 480 214.902 480 480 0 265.096-214.902 480-480 480zM751.59 256c8.58 40.454 13.996 83.39 15.758 128h127.448c-3.338-44.196-13.624-87.114-30.682-128h-112.524zM686.036 576c9.616-40.962 15.398-83.854 17.282-128h-191.318v128h174.036zM512 640v187.338c14.59-4.246 29.042-11.37 43.228-21.37 26.582-18.74 52.012-47.608 73.54-83.486 14.882-24.802 27.752-52.416 38.496-82.484l-155.264 0.002zM331.232 722.484c21.528 35.878 46.956 64.748 73.54 83.486 14.182 10 28.638 17.124 43.228 21.37v-187.34h-155.264c10.746 30.066 23.616 57.68 38.496 82.484zM448 576v-128h-191.314c1.88 44.146 7.666 87.038 17.278 128h174.036zM256.686 384h191.314v-128h-174.036c-9.612 40.96-15.398 83.854-17.278 128zM448 192v-187.34c-14.588 4.246-29.044 11.372-43.228 21.37-26.584 18.74-52.014 47.612-73.54 83.486-14.882 24.804-27.75 52.418-38.498 82.484h155.266zM628.768 109.516c-21.528-35.876-46.958-64.746-73.54-83.486-14.186-9.998-28.638-17.124-43.228-21.37v187.34h155.266c-10.746-30.066-23.616-57.68-38.498-82.484zM512 256v128h191.314c-1.88-44.146-7.666-87.040-17.282-128h-174.032zM767.348 448c-1.762 44.608-7.178 87.546-15.758 128h112.524c17.056-40.886 27.344-83.806 30.682-128h-127.448zM830.658 640h-95.9c-18.638 58.762-44.376 110.294-75.316 151.428 42.538-20.34 81.058-47.616 114.714-81.272 21.48-21.478 40.362-44.938 56.502-70.156zM774.156 121.844c-33.656-33.658-72.18-60.934-114.714-81.274 30.944 41.132 56.678 92.668 75.316 151.43h95.9c-16.14-25.218-35.022-48.678-56.502-70.156z" />
</font>
</defs>
</svg>
